<svg width="18" height="18" viewBox="0 0 18 18" fill="none" xmlns="http://www.w3.org/2000/svg">
<path d="M6.75 18C7.57843 18 8.25 17.3284 8.25 16.5C8.25 15.6716 7.57843 15 6.75 15C5.92157 15 5.25 15.6716 5.25 16.5C5.25 17.3284 5.92157 18 6.75 18Z" fill="#A2A2A2"/>
<path d="M14.25 18C15.0784 18 15.75 17.3284 15.75 16.5C15.75 15.6716 15.0784 15 14.25 15C13.4216 15 12.75 15.6716 12.75 16.5C12.75 17.3284 13.4216 18 14.25 18Z" fill="#A2A2A2"/>
<path d="M17.8589 2.92863C17.8042 2.85878 17.7339 2.80217 17.6534 2.76315C17.573 2.72412 17.4845 2.70372 17.3948 2.70351H3.82407L3.5597 1.87808C3.53066 1.78945 3.48023 1.70904 3.41272 1.64371C3.3452 1.57837 3.2626 1.53006 3.17197 1.50288L0.763312 0.775573C0.689249 0.753211 0.611429 0.745402 0.534295 0.75259C0.45716 0.759779 0.382222 0.781824 0.313759 0.817469C0.175492 0.889456 0.0719916 1.01246 0.026028 1.15943C-0.0199355 1.3064 -0.00459755 1.46528 0.0686677 1.60114C0.141933 1.73699 0.267124 1.83869 0.416701 1.88385L2.52574 2.5188L5.21639 10.8713L4.2588 11.6448L4.18243 11.7198C3.94562 11.9892 3.81145 12.3311 3.80287 12.687C3.7943 13.0429 3.91186 13.3907 4.13543 13.6708C4.29555 13.8622 4.49903 14.014 4.72957 14.1142C4.96011 14.2145 5.21133 14.2603 5.46313 14.2481H15.2681C15.4239 14.2481 15.5734 14.1872 15.6835 14.079C15.7937 13.9707 15.8556 13.8239 15.8556 13.6708C15.8556 13.5177 15.7937 13.3709 15.6835 13.2627C15.5734 13.1544 15.4239 13.0936 15.2681 13.0936H5.36913C5.30148 13.0913 5.23557 13.072 5.17777 13.0374C5.11996 13.0027 5.07222 12.9541 5.03914 12.8961C5.00607 12.838 4.98879 12.7726 4.98896 12.7061C4.98914 12.6396 5.00677 12.5742 5.04015 12.5164L6.45597 11.3619H15.5207C15.6549 11.3658 15.7864 11.3243 15.8933 11.2445C16.0002 11.1647 16.0761 11.0513 16.1082 10.9232L17.9881 3.41927C18.006 3.33322 18.0037 3.24429 17.9813 3.15927C17.9589 3.07425 17.917 2.99536 17.8589 2.92863V2.92863Z" fill="#A2A2A2"/>
</svg>
