<svg width="24" height="24" viewBox="0 0 24 24" fill="none" xmlns="http://www.w3.org/2000/svg">
<path d="M11.9286 10.1429H13.7143V7.46429H16.3929V5.67857H13.7143V3H11.9286V5.67857H9.25V7.46429H11.9286V10.1429ZM8.35714 18.1786C7.88354 18.1786 7.42934 18.3667 7.09445 18.7016C6.75957 19.0365 6.57143 19.4907 6.57143 19.9643C6.57143 20.4379 6.75957 20.8921 7.09445 21.227C7.42934 21.5619 7.88354 21.75 8.35714 21.75C8.83074 21.75 9.28495 21.5619 9.61983 21.227C9.95472 20.8921 10.1429 20.4379 10.1429 19.9643C10.1429 19.4907 9.95472 19.0365 9.61983 18.7016C9.28495 18.3667 8.83074 18.1786 8.35714 18.1786ZM17.2857 18.1786C16.8121 18.1786 16.3579 18.3667 16.023 18.7016C15.6881 19.0365 15.5 19.4907 15.5 19.9643C15.5 20.4379 15.6881 20.8921 16.023 21.227C16.3579 21.5619 16.8121 21.75 17.2857 21.75C17.7593 21.75 18.2135 21.5619 18.5484 21.227C18.8833 20.8921 19.0714 20.4379 19.0714 19.9643C19.0714 19.4907 18.8833 19.0365 18.5484 18.7016C18.2135 18.3667 17.7593 18.1786 17.2857 18.1786ZM8.50893 15.2768L8.53571 15.1696L9.33929 13.7143H15.9911C16.6607 13.7143 17.25 13.3482 17.5536 12.7946L21 6.53571L19.4464 5.67857H19.4375L18.4554 7.46429L15.9911 11.9286H9.72321L9.60714 11.6875L7.60714 7.46429L6.75893 5.67857L5.91964 3.89286H3V5.67857H4.78571L8 12.4554L6.79464 14.6429C6.65179 14.8929 6.57143 15.1875 6.57143 15.5C6.57143 15.9736 6.75957 16.4278 7.09445 16.7627C7.42934 17.0976 7.88354 17.2857 8.35714 17.2857H19.0714V15.5H8.73214C8.61607 15.5 8.50893 15.4018 8.50893 15.2768Z" fill="#A2A2A2"/>
</svg>
