<svg width="24" height="24" viewBox="0 0 24 24" fill="none" xmlns="http://www.w3.org/2000/svg">
<path d="M12.603 18.966L12 19.515L10.695 18.327C6.06 14.124 3 11.343 3 7.95C3 5.169 5.178 3 7.95 3C9.516 3 11.019 3.729 12 4.872C12.981 3.729 14.484 3 16.05 3C18.822 3 21 5.169 21 7.95C21 9.237 20.55 10.434 19.758 11.649C19.2 11.379 18.579 11.199 17.931 11.136C18.75 10.02 19.2 8.985 19.2 7.95C19.2 6.15 17.85 4.8 16.05 4.8C14.664 4.8 13.314 5.7 12.837 6.924H11.163C10.686 5.7 9.336 4.8 7.95 4.8C6.15 4.8 4.8 6.15 4.8 7.95C4.8 10.551 7.626 13.116 11.901 16.995L12 17.085L12.036 17.049C12.108 17.733 12.306 18.381 12.603 18.966ZM16.5 12.9V15.6H13.8V17.4H16.5V20.1H18.3V17.4H21V15.6H18.3V12.9H16.5Z" fill="#A2A2A2"/>
</svg>
