<svg width="12" height="12" viewBox="0 0 12 12" fill="none" xmlns="http://www.w3.org/2000/svg">
<path fill-rule="evenodd" clip-rule="evenodd" d="M2.46456 1.45584C3.40223 0.523683 4.67398 0 6.00005 0C7.32612 0 8.59788 0.523683 9.53555 1.45584C10.4732 2.38801 11 3.65229 11 4.97056C11 6.28884 10.4732 7.55312 9.53555 8.48528L6.00005 12L2.46456 8.48528C2.00024 8.02374 1.63192 7.47579 1.38063 6.87273C1.12934 6.26968 1 5.62332 1 4.97056C1 4.31781 1.12934 3.67145 1.38063 3.06839C1.63192 2.46533 2.00024 1.91739 2.46456 1.45584ZM6.00005 6.39065C6.37891 6.39065 6.74225 6.24103 7.01014 5.97472C7.27804 5.7084 7.42854 5.34719 7.42854 4.97056C7.42854 4.59393 7.27804 4.23273 7.01014 3.96641C6.74225 3.70009 6.37891 3.55047 6.00005 3.55047C5.6212 3.55047 5.25786 3.70009 4.98996 3.96641C4.72207 4.23273 4.57157 4.59393 4.57157 4.97056C4.57157 5.34719 4.72207 5.7084 4.98996 5.97472C5.25786 6.24103 5.6212 6.39065 6.00005 6.39065Z" fill="#E8E8E8"/>
</svg>
