<svg width="161" height="33" viewBox="0 0 161 33" fill="none" xmlns="http://www.w3.org/2000/svg">
<path d="M160 10.5V5H148C146 5 146 5 146 7V15.5V16.001C146 18.5 146 18.5 147.998 18.5H148H155.5V22H146L148.5 27.5H158C160 27.501 160.012 27.4485 160 25V16.5C160 14.001 160 14.001 158.002 14H158H150.5V10.5H160Z" fill="white"/>
<path d="M77 27.5V5H91.5L89 10.5H81.8076V14H89V18.5H81.8076V22H91.5L89 27.5H77Z" fill="white"/>
<path d="M23.8997 25.389C19.8748 28.8673 13.0061 27.7411 8.5638 22.6007C4.12148 17.4603 4.00256 10.5009 8.02744 7.02257C12.0523 3.54425 18.921 4.6705 23.3634 9.81087C27.8057 14.9513 27.9246 21.9107 23.8997 25.389Z" stroke="#F42C08" stroke-width="0.89"/>
<path d="M21.7077 22.8526C18.8213 25.3471 13.8568 24.5589 10.6251 20.8194C7.39338 17.0798 7.33299 12.0536 10.2195 9.55908C13.1059 7.06458 18.0704 7.85276 21.3021 11.5923C24.5338 15.3318 24.5942 20.3581 21.7077 22.8526Z" stroke="#F42C08" stroke-width="0.89"/>
<path d="M20.0588 20.4141C18.2274 21.9968 15.0278 21.522 12.9181 19.0807C10.8084 16.6395 10.8022 13.4049 12.6336 11.8222C14.465 10.2395 17.6646 10.7143 19.7743 13.1556C21.884 15.5968 21.8902 18.8315 20.0588 20.4141Z" stroke="#F42C08" stroke-width="0.89"/>
<path d="M18.4326 18.4309C17.5949 19.1548 16.0576 18.975 15.0046 17.7566C13.9517 16.5382 13.9966 14.9911 14.8343 14.2672C15.6719 13.5433 17.2092 13.723 18.2622 14.9415C19.3152 16.1599 19.2702 17.707 18.4326 18.4309Z" stroke="#F42C08" stroke-width="0.89"/>
<path d="M27.5778 9.23193L7.57784 11.7319L17.0778 15.7319V24.2319L27.5778 9.23193Z" fill="#3030D0" stroke="#101010"/>
<path fill-rule="evenodd" clip-rule="evenodd" d="M96.5 27.5H92V5H113.5C115.5 5 115.5 5.00097 115.5 7.5V27.5H111V10.5H106V27.5H101.5V10.5H96.5V27.5ZM130 10.5V5H118.5C117.25 5.00049 116.625 5.00073 116.312 5.31335C116 5.62589 116 6.25065 116 7.5V24.5C116 26.0917 116 26.8392 116.373 27.1901C116.703 27.5007 117.326 27.5005 118.5 27.5H128C129 27.5 129.5 27.5 129.75 27.25C130 27 130 26.5 130 25.5V14H123V18.5H125.5V22H121V10.5H130ZM131 5H143C145 5 145 5.00098 145 7.5V15.5C145 17.0917 145 17.8392 144.627 18.1901C144.297 18.5007 143.674 18.5005 142.5 18.5H135.5V27.5H131V5ZM141 10.001H136V14.001H141V10.001Z" fill="white"/>
<path fill-rule="evenodd" clip-rule="evenodd" d="M33 5V27.5H45C46 27.5 46.5 27.5 46.75 27.25C47 27 47 26.5 47 25.5V18L46.8162 17.4487C46.611 16.8329 46.611 16.1671 46.8162 15.5513L47 15V7.5C47 5 47 4.99998 45 5H33ZM47.5 5V27.5H59.5L62 22H52.3076V18.5H59.5V14H52.3076V10.5H59.5L62 5H47.5ZM67 22V5H62.5V25C62.5 26.3428 62.5 26.9644 62.8099 27.2521C63.077 27.5 63.5742 27.5 64.5 27.5H64.5H74.5L76.5 22H67ZM38 10H43V14H38V10ZM43 18H38V22H43V18Z" fill="white"/>
</svg>
